<svg xmlns="http://www.w3.org/2000/svg" style="display: none;">
  
    <symbol id="icon-ic-angle-down" viewBox="0 0 512 512">
      <path d="m256 346c-7 0-13-3-18-8l-115-125c-10-11-10-28 0-39 9-10 25-10 35 0l98 106 98-106c10-10 26-10 35 0 10 11 10 28 0 39l-115 125c-5 5-11 8-18 8z"/>
    </symbol>
  
    <symbol id="icon-ic-angle-up" viewBox="0 0 512 512">
      <path d="m256 166c7 0 13 3 18 8l115 125c10 11 10 28 0 39-9 10-25 10-35 0l-98-106-98 106c-10 10-26 10-35 0-10-11-10-28 0-39l115-125c5-5 11-8 18-8z"/>
    </symbol>
  
    <symbol id="icon-ic-arrow-left" viewBox="0 0 512 512">
      <path d="m59 274l128 128c10 10 26 10 36 0 10-10 10-26 0-36l-84-84 296 0c14 0 26-12 26-26 0-14-12-26-26-26l-296 0 84-84c10-10 10-26 0-36-5-5-12-8-18-8-7 0-13 3-18 8l-128 128c-10 10-10 26 0 36"/>
    </symbol>
  
    <symbol id="icon-ic-arrow-right" viewBox="0 0 512 512">
      <path d="m453 238l-128-128c-10-10-26-10-36 0-10 10-10 26 0 36l84 84-296 0c-14 0-26 12-26 26 0 14 12 26 26 26l296 0-84 84c-10 10-10 26 0 36 5 5 12 8 18 8 7 0 13-3 18-8l128-128c10-10 10-26 0-36"/>
    </symbol>
  
    <symbol id="icon-ic-better" viewBox="0 0 512 512">
      <path d="m278 165l108 180c8 12 4 28-8 35-4 3-9 4-14 4l-216 0c-15 0-26-11-26-26 0-4 1-9 4-13l108-180c7-13 23-16 35-9 4 2 7 5 9 9z"/>
    </symbol>
  
    <symbol id="icon-ic-check" viewBox="0 0 512 512">
      <path d="m73 253c-8-12-24-15-36-7-12 7-15 23-7 35l122 184c10 15 32 15 42 0l285-399c8-11 6-27-6-36-11-8-27-5-36 6l-263 369z"/>
    </symbol>
  
    <symbol id="icon-ic-equal" viewBox="0 0 512 512">
      <path d="m154 282l204 0c15 0 26 11 26 25 0 14-11 26-26 26l-204 0c-15 0-26-12-26-26 0-14 11-25 26-25z m0-103l204 0c15 0 26 12 26 26 0 14-11 25-26 25l-204 0c-15 0-26-11-26-25 0-14 11-26 26-26z"/>
    </symbol>
  
    <symbol id="icon-ic-info" viewBox="0 0 512 512">
      <path d="m256 461c-113 0-205-92-205-205 0-113 92-205 205-205 113 0 205 92 205 205 0 113-92 205-205 205z m0-51c85 0 154-69 154-154 0-85-69-154-154-154-85 0-154 69-154 154 0 85 69 154 154 154z m-26-167c0-14 12-25 26-25 14 0 26 11 26 25l0 103c0 14-12 25-26 25-14 0-26-11-26-25z m26-51c-14 0-26-11-26-26 0-14 12-25 26-25 14 0 26 11 26 25 0 15-12 26-26 26z"/>
    </symbol>
  
    <symbol id="icon-ic-no-data" viewBox="0 0 512 512">
      <path d="m256 333c42 0 77-35 77-77 0-42-35-77-77-77-42 0-77 35-77 77 0 42 35 77 77 77z m0 51c-71 0-128-57-128-128 0-71 57-128 128-128 71 0 128 57 128 128 0 71-57 128-128 128z"/>
    </symbol>
  
    <symbol id="icon-ic-less" viewBox="0 0 512 512">
      <path d="m128 282l256 0c14 0 26-12 26-26 0-14-12-26-26-26l-256 0c-14 0-26 12-26 26 0 14 12 26 26 26z"/>
    </symbol>
  
    <symbol id="icon-ic-notifications" viewBox="0 0 512 512">
      <path d="m224 435c0 18 14 32 32 32 18 0 32-14 32-32l0-25 38 0-38 0 38 0 0 25c0 39-31 71-70 71-39 0-70-32-70-71l0-25 38 0z m-141-108l0-148c0-95 78-173 173-173 95 0 173 78 173 173l0 148 48 72c8 13-1 30-16 30l-410 0c-15 0-24-17-16-30z m39-13l268 0 0-135c0-74-60-134-134-134-74 0-134 60-134 134z m230-135c0 11-9 19-19 19-11 0-19-8-19-19 0-32-26-57-58-57-11 0-19-9-19-20 0-10 8-19 19-19 53 0 96 43 96 96z m-265 211l338 0-26-38-286 0z"/>
    </symbol>
  
    <symbol id="icon-ic-plus" viewBox="0 0 512 512">
      <path d="m230 230l0-102c0-14 12-26 26-26 14 0 26 12 26 26l0 102 102 0c14 0 26 12 26 26 0 14-12 26-26 26l-102 0 0 102c0 14-12 26-26 26-14 0-26-12-26-26l0-102-102 0c-14 0-26-12-26-26 0-14 12-26 26-26z"/>
    </symbol>
  
    <symbol id="icon-ic-worse" viewBox="0 0 512 512">
      <path d="m234 347l-108-180c-8-12-4-28 8-35 4-3 9-4 14-4l216 0c15 0 26 11 26 26 0 4-1 9-4 13l-108 180c-7 13-23 16-35 9-4-2-7-5-9-9z"/>
    </symbol>
  
    <symbol id="icon-ic-support" viewBox="0 0 512 512">
      <path d="m47 224c-1 10-2 21-2 32 0 11 1 22 2 32l92 0c-3-10-5-21-5-32 0-11 2-22 5-32z m10-38l100 0c8-12 17-21 29-29l0-100c-60 21-108 69-129 129z m0 140c21 60 69 108 129 129l0-100c-12-8-21-17-29-29z m408-102l-92 0c3 10 5 21 5 32 0 11-2 22-5 32l92 0c1-10 2-21 2-32 0-11-1-22-2-32z m-10-38c-21-60-69-108-129-129l0 100c12 8 21 17 29 29z m0 140l-100 0c-8 12-17 21-29 29l0 100c60-21 108-69 129-129z m-231 139c10 1 21 2 32 2 11 0 22-1 32-2l0-92c-10 3-21 5-32 5-11 0-22-2-32-5z m0-418l0 92c10-3 21-5 32-5 11 0 22 2 32 5l0-92c-10-1-21-2-32-2-11 0-22 1-32 2z m32 459c-138 0-250-112-250-250 0-138 112-250 250-250 138 0 250 112 250 250 0 138-112 250-250 250z m0-167c46 0 83-37 83-83 0-46-37-83-83-83-46 0-83 37-83 83 0 46 37 83 83 83z"/>
    </symbol>
  
    <symbol id="icon-ic-settings" viewBox="0 0 512 512">
      <path d="m474 313l-34 0c-4 11-9 22-14 33l24 24c11 11 11 30 0 42l-39 39c-12 11-31 11-42 0l-24-24c-11 6-22 10-34 14l0 33c0 16-13 29-29 29l-55 0c-17 0-30-13-30-29l0-33c-12-3-23-8-34-14l-23 23c-11 11-30 11-42 0l-39-39c-11-12-11-31 0-42l23-23c-6-11-11-22-15-35l-31 0c-16 0-30-13-30-29l0-55c0-17 14-30 30-30l32 0c3-12 8-24 14-35l-22-22c-5-5-8-13-8-21 0-8 3-15 8-21l39-39c12-11 31-11 42 0l23 23c11-6 22-10 34-14l0-32c0-16 14-30 30-30l55 0c16 0 30 14 30 30l0 33c11 4 23 9 33 15l24-24c11-11 30-11 42 0l39 39c11 12 11 30 0 42l-25 24c6 11 11 22 14 33l34 0c16 0 29 14 29 30l0 55c0 16-13 30-29 30z m-7-78l-55 0-4-14 0-3c-4-16-10-30-18-44l-9-15 39-39-29-30-39 39-12-7-3-2c-14-8-28-15-44-19l-17-4 0-54-41 0 0 54-14 3-3 1c-16 3-31 9-45 18l-15 8-10-10-28-27-30 29 38 38-8 12-1 2c-9 14-15 30-19 46l-4 16-53 0 0 42 52 0 4 14 1 3c3 16 10 31 18 45l9 15-37 38 29 29 38-37 12 7 3 2c13 8 29 14 45 18l16 4 0 54 42 0 0-54 14-4 3 0c15-4 30-10 44-19l15-9 39 39 29-29-39-39 8-12 1-3c9-14 15-28 18-44l5-17 55 0z m-212-76c53 0 96 43 96 96 0 53-43 96-96 96-53 0-96-43-96-96 0-53 43-96 96-96z m0 38c-32 0-58 26-58 58 0 32 26 58 58 58 32 0 58-26 58-58 0-32-26-58-58-58z"/>
    </symbol>
  
    <symbol id="icon-ic-reports" viewBox="0 0 512 512">
      <path d="m392 133c-16-13-27-34-27-56 0-39 31-71 70-71 39 0 71 32 71 71 0 39-32 70-71 70-2 0-5 0-7 0l-52 130c16 13 27 33 27 56 0 39-31 70-70 70-39 0-71-31-71-70 0-13 4-24 9-35l-57-57c-11 5-22 9-35 9-2 0-5-1-7-1l-52 130c16 13 27 34 27 56 0 39-31 71-70 71-39 0-71-32-71-71 0-39 32-70 71-70 2 0 5 0 7 0l52-130c-16-13-27-33-27-56 0-39 31-70 70-70 39 0 71 31 71 70 0 13-4 24-9 35l57 57c11-5 22-9 35-9 2 0 5 1 7 1z m-315 334c17 0 32-14 32-32 0-17-15-32-32-32-18 0-32 15-32 32 0 18 14 32 32 32z m102-256c18 0 32-14 32-32 0-17-14-32-32-32-17 0-32 15-32 32 0 18 15 32 32 32z m154 154c17 0 32-15 32-32 0-18-15-32-32-32-18 0-32 14-32 32 0 17 14 32 32 32z m102-256c18 0 32-15 32-32 0-18-14-32-32-32-17 0-32 14-32 32 0 17 15 32 32 32z"/>
    </symbol>
  
    <symbol id="icon-ic-campaigns" viewBox="0 0 512 512">
      <path d="m283 393l-12 4-153-153 4-11c19-51 49-97 91-139 56-56 252-100 280-72 29 29-15 224-72 281-42 42-88 72-138 90z m111-118c23-23 45-74 58-134 6-26 10-50 11-70 1-8 1-14 1-19-5-1-12 0-20 0-19 2-44 5-69 11-61 14-111 35-135 59-35 34-61 72-77 113l118 118c40-17 78-43 113-78z m76-223c0 0 0 0 1 0 0 0 0 0-1 0z m-7-7c0 0 0 0 0 0 0 0 0 0 0 0z m-232 212c7-7 19-7 27 0 7 8 7 20 0 28l-91 90c-7 8-19 8-27 0-7-7-7-20 0-27z m40 249c-7-5-7-5-9-9-1-4-1-4-1-6-1-2-1-4-1-7 0-5-1-12-1-22 0-19 0-48 1-87l0-12 114-57 7 22c23 83-9 144-93 179-4 2-7 1-17-1z m27-119c0 32 0 56 0 72 40-23 56-54 50-97z m-289-143c-2-10-2-13 0-17 34-83 95-116 178-92l22 6-57 115-12 0c-39 0-68 0-87 0-10 0-17 0-22-1-3 0-5 0-7 0-2-1-2-1-6-2-3-2-3-2-9-9z m119-27l26-50c-43-6-75 11-98 51 17 0 41 0 72-1z m157 13c-27-27-27-72 0-99 28-28 72-28 100 0 27 27 27 72 0 99-28 28-72 28-100 0z m27-27c13 13 33 13 46 0 12-12 12-33 0-45-13-13-33-13-46 0-12 12-12 33 0 45z m53-146c-7-8-7-20 0-27 8-8 20-8 27 0l94 93c7 7 7 20 0 27-8 8-20 8-28 0z"/>
    </symbol>
  
</svg>
